# xmcd CD database file
#
# Track frame offsets:
#	150
#	10544
#	24688
#	34784
#	50127
#	56779
#	76714
#	90948
#	108544
#	126250
#
# Disc length: 1855 seconds
#
# Revision: 0
# Processed by: cddbd v1.4PL0 Copyright (c) Steve Scherf et al.
# Submitted via: CdAid 2001.05.15.01
#
DISCID=76073d0a
DTITLE=Hank Williams Jr. - A Tribute To My Father
DYEAR=1900
DGENRE=
TTITLE0=Honky Tonkin'
TTITLE1=Are You Sure Hank Done It This Way
TTITLE2=Lovesick Blues
TTITLE3=Ballad Of Hank Williams
TTITLE4=A Whole Lot Of Hank
TTITLE5=Kaw-Liga
TTITLE6=Move It On Over
TTITLE7=The Conversation
TTITLE8=You're Gonna Change (Or I'm Gonna Leave)
TTITLE9=If Y Don't Like Hank Williams
EXTD=
EXTT0=
EXTT1=
EXTT2=
EXTT3=
EXTT4=
EXTT5=
EXTT6=
EXTT7=
EXTT8=
EXTT9=
PLAYORDER=
